<?xml version="1.0" encoding="UTF-8" standalone="no"?>
<!-- Created with Inkscape (http://www.inkscape.org/) -->

<svg
   width="210mm"
   height="297mm"
   viewBox="0 0 210 297"
   version="1.1"
   id="svg5"
   inkscape:version="1.2.2 (b0a84865, 2022-12-01)"
   sodipodi:docname="borders.svg"
   xmlns:inkscape="http://www.inkscape.org/namespaces/inkscape"
   xmlns:sodipodi="http://sodipodi.sourceforge.net/DTD/sodipodi-0.dtd"
   xmlns="http://www.w3.org/2000/svg"
   xmlns:svg="http://www.w3.org/2000/svg">
  <sodipodi:namedview
     id="namedview7"
     pagecolor="#ffffff"
     bordercolor="#000000"
     borderopacity="0.25"
     inkscape:showpageshadow="2"
     inkscape:pageopacity="0.0"
     inkscape:pagecheckerboard="0"
     inkscape:deskcolor="#d1d1d1"
     inkscape:document-units="mm"
     showgrid="false"
     inkscape:zoom="2.3051281"
     inkscape:cx="355.5117"
     inkscape:cy="378.72082"
     inkscape:window-width="1468"
     inkscape:window-height="916"
     inkscape:window-x="0"
     inkscape:window-y="38"
     inkscape:window-maximized="0"
     inkscape:current-layer="layer1">
    <inkscape:grid
       type="xygrid"
       id="grid721" />
  </sodipodi:namedview>
  <defs
     id="defs2" />
  <g
     inkscape:label="Ebene 1"
     inkscape:groupmode="layer"
     id="layer1"
     style="display:inline">
    <ellipse
       style="opacity:1;fill:none;fill-opacity:1;stroke:#1a1a1a;stroke-width:0.307795;stroke-dasharray:none;stroke-opacity:1"
       id="path1651"
       cx="70.015991"
       cy="77.763672"
       rx="2.8666112"
       ry="2.9240012" />
    <ellipse
       style="display:inline;fill:none;fill-opacity:1;stroke:#1a1a1a;stroke-width:0.429861;stroke-dasharray:none;stroke-opacity:1"
       id="path1651-7"
       cx="-2.4859447"
       cy="104.23061"
       rx="3.4368694"
       ry="4.7568431"
       transform="rotate(-43.510544)" />
    <circle
       id="path247"
       style="fill:#2b0000;stroke:none;stroke-width:0.264583"
       cx="55.058262"
       cy="82.430084"
       r="0.041906897" />
    <rect
       style="opacity:1;fill:none;stroke:#1a1a1a;stroke-width:1.065;stroke-dasharray:none"
       id="rect1400"
       width="90.370216"
       height="145.03317"
       x="49.813828"
       y="65.683716" />
    <rect
       style="opacity:1;fill:none;stroke:#1a1a1a;stroke-width:0.809532;stroke-dasharray:none"
       id="rect1402"
       width="6.4924626"
       height="6.8738093"
       x="45.762215"
       y="61.312527" />
    <rect
       style="opacity:1;fill:none;stroke:#1a1a1a;stroke-width:0.965805;stroke-dasharray:none"
       id="rect1404"
       width="3.9152911"
       height="3.9152908"
       x="43.998947"
       y="59.711578" />
    <rect
       style="opacity:1;fill:none;stroke:#1a1a1a;stroke-width:0.902;stroke-dasharray:none"
       id="rect1406"
       width="93.505669"
       height="148.7753"
       x="47.717461"
       y="63.468815" />
    <circle
       style="display:inline;fill:none;stroke:#1a1a1a;stroke-width:0.302;stroke-dasharray:none;fill-opacity:1"
       id="path1489-3"
       cx="69.901215"
       cy="77.591492"
       r="1.7217048" />
    <circle
       style="display:inline;fill:none;stroke:#1a1a1a;stroke-width:0.302;stroke-dasharray:none"
       id="path1489-9"
       cx="69.901215"
       cy="80.920128"
       r="1.7217048" />
    <circle
       style="display:inline;fill:none;stroke:#1a1a1a;stroke-width:0.302;stroke-dasharray:none"
       id="path1489-0"
       cx="70.015991"
       cy="82.871391"
       r="1.7217048" />
    <circle
       style="display:inline;fill:none;stroke:#1a1a1a;stroke-width:0.302;stroke-dasharray:none"
       id="path1489-2"
       cx="70.130775"
       cy="84.478317"
       r="1.7217048" />
    <circle
       style="display:inline;fill:none;stroke:#1a1a1a;stroke-width:0.302;stroke-dasharray:none"
       id="path1489-2-0"
       cx="70.175507"
       cy="86.314796"
       r="1.7217048" />
    <circle
       style="display:inline;fill:none;stroke:#1a1a1a;stroke-width:0.302;stroke-dasharray:none"
       id="path1489-7-7"
       cx="-75.051888"
       cy="76.22039"
       r="1.7217048"
       transform="rotate(-87.977804)" />
    <circle
       style="display:inline;fill:none;stroke:#1a1a1a;stroke-width:0.302;stroke-dasharray:none"
       id="path1489-9-0"
       cx="-74.937103"
       cy="78.056877"
       r="1.7217048"
       transform="rotate(-87.977804)" />
    <circle
       style="display:inline;fill:none;stroke:#1a1a1a;stroke-width:0.302;stroke-dasharray:none"
       id="path1489-0-3"
       cx="-74.822327"
       cy="80.008141"
       r="1.7217048"
       transform="rotate(-87.977804)" />
    <circle
       style="display:inline;fill:none;stroke:#1a1a1a;stroke-width:0.302;stroke-dasharray:none"
       id="path1489-2-9"
       cx="-74.707542"
       cy="81.615067"
       r="1.7217048"
       transform="rotate(-87.977804)" />
    <rect
       style="opacity:1;fill:none;fill-opacity:1;stroke:#1a1a1a;stroke-width:0.302001;stroke-dasharray:none;stroke-opacity:1"
       id="rect1697"
       width="19.627434"
       height="26.399473"
       x="68.179512"
       y="75.869789" />
    <rect
       style="display:inline;fill:none;fill-opacity:1;stroke:#1a1a1a;stroke-width:0.302001;stroke-dasharray:none;stroke-opacity:1"
       id="rect1697-4"
       width="19.627434"
       height="26.399473"
       x="71.680313"
       y="79.313194" />
    <path
       style="opacity:1;fill:#ff8080;fill-opacity:1;stroke:#1a1a1a;stroke-width:0.495164;stroke-dasharray:none;stroke-opacity:1"
       d="m 183.287,235.77866 v -2.38599 h 6.29032 6.29032 v 2.38599 2.38598 h -6.29032 -6.29032 z"
       id="path1867"
       transform="scale(0.26458333)" />
    <path
       style="opacity:1;fill:#ff8080;fill-opacity:1;stroke:#1a1a1a;stroke-width:0.495164;stroke-dasharray:none;stroke-opacity:1"
       d="m 174.61069,249.22693 v -6.72413 h 1.95217 1.95217 v 6.72413 6.72414 h -1.95217 -1.95217 z"
       id="path1869"
       transform="scale(0.26458333)" />
    <path
       style="opacity:1;fill:#ff8080;fill-opacity:1;stroke:#1a1a1a;stroke-width:0.495164;stroke-dasharray:none;stroke-opacity:1"
       d="m 190.66186,253.13127 v -2.8198 h 2.60289 2.60289 v 2.8198 2.8198 h -2.60289 -2.60289 z"
       id="path1871"
       transform="scale(0.26458333)" />
    <path
       style="opacity:1;fill:#eef4d7;fill-opacity:1;stroke:#1a1a1a;stroke-width:0.495164;stroke-dasharray:none;stroke-opacity:1"
       d="m 168.53727,233.17576 v -5.42269 h 5.20579 5.20578 v 1.08454 c 0,1.07651 -0.0289,1.08454 -3.90434,1.08454 h -3.90433 v 4.33815 4.33816 h -1.30145 -1.30145 z"
       id="path1873"
       transform="scale(0.26458333)" />
    <path
       style="opacity:1;fill:#eef4d7;fill-opacity:1;stroke:#1a1a1a;stroke-width:0.495164;stroke-dasharray:none;stroke-opacity:1"
       d="m 182.41937,249.41285 c 0,-5.08803 0.13745,-6.67567 0.61973,-7.15795 0.47838,-0.47838 2.01208,-0.61974 6.72414,-0.61974 h 6.1044 v 2.16908 2.16908 h -4.98887 -4.98888 v 4.98888 4.98887 h -1.73526 -1.73526 z"
       id="path2013"
       transform="scale(0.26458333)" />
    <path
       style="opacity:1;fill:#f4d7d7;fill-opacity:1;stroke:#1a1a1a;stroke-width:0.495164;stroke-dasharray:none;stroke-opacity:1"
       d="m 175.0445,249.22693 v -6.29032 h 1.51836 1.51835 v 6.29032 6.29033 h -1.51835 -1.51836 z"
       id="path2155"
       transform="scale(0.26458333)" />
    <path
       style="opacity:1;fill:#f4d7d7;fill-opacity:1;stroke:#1a1a1a;stroke-width:0.495164;stroke-dasharray:none;stroke-opacity:1"
       d="m 183.72081,235.77866 v -1.95217 h 5.85651 5.85651 v 1.95217 1.95217 h -5.85651 -5.85651 z"
       id="path2157"
       transform="scale(0.26458333)" />
    <path
       style="opacity:1;fill:#ffccaa;fill-opacity:1;stroke:#1a1a1a;stroke-width:0.495164;stroke-dasharray:none;stroke-opacity:1"
       d="m 191.09567,253.13127 v -2.38598 h 2.16908 2.16908 v 2.38598 2.38599 h -2.16908 -2.16908 z"
       id="path2159"
       transform="scale(0.26458333)" />
    <path
       style="opacity:1;fill:#ffccaa;fill-opacity:1;stroke:#1a1a1a;stroke-width:0.495164;stroke-dasharray:none;stroke-opacity:1"
       d="m 184.15463,235.77866 v -1.51836 h 5.42269 5.42269 v 1.51836 1.51835 h -5.42269 -5.42269 z"
       id="path2956"
       transform="scale(0.26458333)" />
    <path
       style="opacity:1;fill:#ffccaa;fill-opacity:1;stroke:#1a1a1a;stroke-width:0.495164;stroke-dasharray:none;stroke-opacity:1"
       d="m 175.47832,249.22693 v -5.8565 h 1.08454 1.08454 v 5.8565 5.85651 h -1.08454 -1.08454 z"
       id="path2958"
       transform="scale(0.26458333)" />
    <path
       style="opacity:1;fill:#ffccaa;fill-opacity:1;stroke:#1a1a1a;stroke-width:0.495164;stroke-dasharray:none;stroke-opacity:1"
       d="m 191.52949,253.13127 v -1.95217 h 1.73526 1.73526 v 1.95217 1.95217 h -1.73526 -1.73526 z"
       id="path2960"
       transform="scale(0.26458333)" />
    <path
       style="opacity:1;fill:#ffccaa;fill-opacity:1;stroke:#1a1a1a;stroke-width:0.302001;stroke-dasharray:none;stroke-opacity:1"
       d="m 105.36833,94.4642 c 0.0326,0.284614 -0.0981,1.04975 0.11478,1.262583 0.0271,0.02706 0.0877,-0.02705 0.11478,0 0.0682,0.06822 0.0675,0.134993 0.11478,0.229561 0.23885,0.477689 -0.008,-0.122703 0.22956,0.114781 0.006,0.0062 0.22334,0.338122 0.22956,0.344342 0.0383,0.03826 0.30608,0.07652 0.34434,0.114779 0.0271,0.02705 -0.0271,0.08773 0,0.114782 0.0541,0.05411 0.17546,-0.05411 0.22956,0 0.0574,0.05739 0.0574,0.172169 0.11479,0.22956 0.0271,0.02705 0.0806,-0.01712 0.11478,0 0.5559,0.27795 0.5739,0.848233 0.5739,1.377363 0,0.155577 0.0647,0.444494 0,0.573902 -0.10192,0.20383 -0.33797,0.570714 -0.5739,0.688681 -0.0342,0.01712 -0.0765,0 -0.11478,0 -0.0765,0.03826 -0.16112,0.06345 -0.22957,0.114782 -0.45886,0.344149 -0.91179,0.790554 -1.1478,1.262584 -0.0663,0.13257 0,0.54867 0,0.68868 0,0.20463 -0.0639,0.49689 0,0.68868 0.10274,0.30822 0.87436,1.69976 1.1478,1.83649 0.13687,0.0684 0.47048,0.12613 0.57391,0.22956 0.0705,0.0705 0.0758,0.26747 0.22956,0.34434 0.22806,0.11403 0.12549,0.12549 0.22956,0.22956 0.0271,0.0271 0.0977,-0.0342 0.11478,0 0.11032,0.22065 0.17591,1.18646 0.11478,1.49214 -0.21175,1.05876 -1.23843,1.6749 -2.06605,2.29561 -0.22986,0.1724 -0.53563,0.15301 -0.68868,0.45912 -0.16743,0.33487 -0.11478,0.7408 -0.11478,1.14781 0,0.19267 -0.085,0.63344 0,0.80346 0.0242,0.0484 0.0765,0.0765 0.11478,0.11478 0,0.0765 -0.0242,0.15696 0,0.22956 0.0419,0.12578 0.26992,0.2327 0.34434,0.34434 0.33263,0.49895 0.69878,0.99078 1.03302,1.49214 0.12375,0.18563 0.21049,0.39543 0.34435,0.5739 0.33503,0.44672 0.83704,0.79645 1.1478,1.26259 0.14075,0.21112 0.066,0.29555 0.22956,0.45912"
       id="path20498" />
    <path
       style="opacity:1;fill:#ffccaa;fill-opacity:1;stroke:#1a1a1a;stroke-width:0.302001;stroke-dasharray:none;stroke-opacity:1"
       d="m 105.13877,114.8951 c 0.15751,-0.26532 -0.11513,-0.74519 0,-1.03303 0.10572,-0.26429 0.81532,-1.27444 1.03302,-1.49214 0.0271,-0.0271 0.0765,0 0.11478,0 0.0383,-0.0383 0.0848,-0.0698 0.11478,-0.11478 0.12597,-0.18895 0.21838,-0.38495 0.34434,-0.5739 0.06,-0.09 0.19534,-0.1269 0.22957,-0.22956 0.0242,-0.0726 -0.0242,-0.15697 0,-0.22956 0.0171,-0.0513 0.0977,-0.0635 0.11478,-0.11478 0.0363,-0.10889 -0.0513,-0.24168 0,-0.34434 0.32799,-0.65599 0.0389,-1.95025 -0.34435,-2.52517 -0.17476,-0.26215 -0.37849,-0.26372 -0.5739,-0.45912 -0.27878,-0.27878 0.0341,-0.16855 -0.22956,-0.34434 -0.66123,-0.44083 -1.6166,-1.10908 -1.37736,-2.06605 0.0832,-0.33289 0.0896,-0.13432 0.22956,-0.34434 0.0494,-0.0741 0.17985,-0.40941 0.22956,-0.45912 0.27878,-0.27878 0.16854,0.0341 0.34434,-0.22956 0.11151,-0.16727 0.0717,-0.23907 0.22956,-0.34434 0.87761,-0.58507 2.4216,-1.33252 2.06605,-2.75473 -0.11096,-0.44384 -0.50038,-0.54163 -0.68868,-0.91824 -0.15744,-0.31488 -0.37789,-0.481489 -0.68869,-0.688684 -0.86737,-0.578252 -1.79745,-1.914554 -1.26258,-2.984288 0.0171,-0.03422 0.0909,0.02987 0.11478,0 0.13937,-0.174207 0.21467,-0.392364 0.34434,-0.573903 0.20598,-0.288369 0.95818,-0.904282 1.26258,-1.147802 0.42825,-0.342593 0.87268,-0.643117 1.26259,-1.033023"
       id="path20500" />
    <path
       style="opacity:1;fill:#ffccaa;fill-opacity:1;stroke:#1a1a1a;stroke-width:0.302001;stroke-dasharray:none;stroke-opacity:1"
       d="m 104.79443,106.51613 c -0.39367,-0.49289 -0.87021,-0.77944 -1.37737,-1.03302 -0.13773,-0.0689 -0.2066,-0.27547 -0.34433,-0.34434 -0.15972,-0.0799 -0.31865,-0.0891 -0.45913,-0.22956"
       id="path20502" />
    <path
       style="opacity:1;fill:#ffccaa;fill-opacity:1;stroke:#1a1a1a;stroke-width:0.302001;stroke-dasharray:none;stroke-opacity:1"
       d="m 107.77872,106.40135 c 0.0294,-0.38378 0.34217,-0.68218 0.45912,-1.03302 0.0344,-0.1033 -0.0344,-0.24104 0,-0.34434 -0.20785,-0.48021 0.18116,-0.13277 0.22956,-0.22956 0.0342,-0.0684 -0.0242,-0.15697 0,-0.22956 0.13075,-0.39226 0.71379,-0.98282 0.45912,-1.49214 -0.0537,-0.10743 -0.45912,-0.29945 -0.45912,-0.45913"
       id="path20504" />
    <path
       style="opacity:1;fill:#ffccaa;fill-opacity:1;stroke:#1a1a1a;stroke-width:0.302001;stroke-dasharray:none;stroke-opacity:1"
       d="m 104.79443,104.33531 c -0.13846,-0.59071 -0.55083,-0.52775 -0.80346,-1.03302 -0.0171,-0.0342 0.0271,-0.0877 0,-0.11479 -0.0271,-0.0271 -0.0877,0.0271 -0.11478,0 -0.0271,-0.0271 0.0271,-0.0877 0,-0.11477 -0.0271,-0.0271 -0.0877,0.027 -0.11478,0 -0.0447,-0.0447 0,-0.38908 0,-0.45913"
       id="path20506" />
    <path
       style="opacity:1;fill:#ffccaa;fill-opacity:1;stroke:#1a1a1a;stroke-width:0.302001;stroke-dasharray:none;stroke-opacity:1"
       d="m 107.43438,101.4658 c -0.009,-0.60321 -0.0844,-1.33515 0.45912,-1.606924 0.46233,-0.231166 1.03302,0.344384 1.03302,-0.459121"
       id="path20508" />
    <path
       style="opacity:1;fill:#ffccaa;fill-opacity:1;stroke:#1a1a1a;stroke-width:0.302001;stroke-dasharray:none;stroke-opacity:1"
       d="m 105.02399,98.481511 c 0.39177,-0.575805 -0.37187,-0.426942 -0.45912,-0.688681 -0.0484,-0.145188 0.0371,-0.31065 0,-0.459121 -0.0974,-0.389673 -0.11478,-0.730515 -0.11478,-1.147802"
       id="path20510" />
    <path
       style="opacity:1;fill:#ffccaa;fill-opacity:1;stroke:#1a1a1a;stroke-width:0.302001;stroke-dasharray:none;stroke-opacity:1"
       d="m 106.86048,111.10735 c 0.0646,-0.51262 0.48926,-0.12985 0.68868,-0.22956 0.35534,-0.17768 0.91824,-1.23435 0.91824,-1.49215"
       id="path20512" />
    <path
       style="opacity:1;fill:#ffccaa;fill-opacity:1;stroke:#1a1a1a;stroke-width:0.302001;stroke-dasharray:none;stroke-opacity:1"
       d="m 105.25355,111.91081 c -0.16237,-0.2164 -0.49236,0.0982 -0.68868,0 -0.68891,-0.34445 -0.68868,-2.52913 -0.68868,-3.09907"
       id="path20514" />
    <path
       style="opacity:1;fill:#ffccaa;fill-opacity:1;stroke:#1a1a1a;stroke-width:0.302001;stroke-dasharray:none;stroke-opacity:1"
       d="m 123.96274,115.58378 c -0.16297,-0.43207 0.17148,-1.06344 0,-1.49215 -0.0965,-0.24132 -0.28346,-0.39824 -0.45912,-0.5739 -0.667,-0.667 -1.01318,-1.07553 -1.7217,-1.60692 -0.40356,-0.30267 -0.80377,-0.45942 -1.14781,-0.80346"
       id="path21242" />
    <path
       style="opacity:1;fill:#ffccaa;fill-opacity:1;stroke:#1a1a1a;stroke-width:0.302001;stroke-dasharray:none;stroke-opacity:1"
       d="m 121.8967,114.8951 c -0.10403,-1.41891 0.39764,-1.45818 1.7217,-1.83649"
       id="path21244" />
    <path
       style="opacity:1;fill:#ffccaa;fill-opacity:1;stroke:#1a1a1a;stroke-width:0.302001;stroke-dasharray:none;stroke-opacity:1"
       d="m 124.07752,112.25515 c -0.62959,-0.0106 -1.11439,-0.5739 -1.7217,-0.5739"
       id="path21246" />
    <path
       style="opacity:1;fill:#ffccaa;fill-opacity:1;stroke:#1a1a1a;stroke-width:0.302001;stroke-dasharray:none;stroke-opacity:1"
       d="m 121.32279,110.64822 c 0.53936,-1.27295 1.60756,-1.98994 2.75473,-2.75472 0.0527,-0.0352 1.03303,-0.56836 1.03303,-0.22956"
       id="path21248" />
    <path
       style="opacity:1;fill:#ffccaa;fill-opacity:1;stroke:#1a1a1a;stroke-width:0.302001;stroke-dasharray:none;stroke-opacity:1"
       d="m 123.73318,109.6152 c -0.30608,-0.0383 -0.62942,-0.006 -0.91824,-0.11478 -0.33796,-0.12673 -0.61216,-0.3826 -0.91824,-0.5739 -1.05769,-0.66106 -2.11524,-1.29303 -3.09907,-2.06604 -0.21508,-0.169 -0.93112,-1.03303 -1.03302,-1.03303 -0.0856,0 0.0543,0.16907 0.11478,0.22956"
       id="path21250" />
    <path
       style="opacity:1;fill:#ffccaa;fill-opacity:1;stroke:#1a1a1a;stroke-width:0.302001;stroke-dasharray:none;stroke-opacity:1"
       d="m 121.43758,111.33691 c 0.86228,-0.18727 1.76011,-0.11478 2.63994,-0.11478"
       id="path21252" />
    <path
       style="opacity:1;fill:#ffccaa;fill-opacity:1;stroke:#1a1a1a;stroke-width:0.302001;stroke-dasharray:none;stroke-opacity:1"
       d="m 124.07752,108.69696 c -0.31034,-0.68044 -1.17734,-0.48866 -1.60692,-0.91824"
       id="path21254" />
    <path
       style="opacity:1;fill:#ffccaa;fill-opacity:1;stroke:#1a1a1a;stroke-width:0.302001;stroke-dasharray:none;stroke-opacity:1"
       d="m 122.12626,109.38564 c 0.15304,-0.26782 0.25162,-0.57522 0.45912,-0.80346 0.48096,-0.52906 2.13621,-1.36249 2.86951,-1.60692"
       id="path21256" />
    <path
       style="opacity:1;fill:#ffccaa;fill-opacity:1;stroke:#1a1a1a;stroke-width:0.302001;stroke-dasharray:none;stroke-opacity:1"
       d="m 123.15928,107.09004 c -0.30608,0 -0.61216,0 -0.91824,0"
       id="path21258" />
    <path
       style="opacity:1;fill:#ffccaa;fill-opacity:1;stroke:#1a1a1a;stroke-width:0.302001;stroke-dasharray:none;stroke-opacity:1"
       d="m 119.14197,107.77872 c 1.09871,0.0212 1.92525,-0.60974 2.86951,-1.03303 1.09572,-0.49118 2.22852,-0.89606 3.32863,-1.37736 0.1123,-0.0491 1.37736,-0.45767 1.37736,-0.68868"
       id="path21260" />
    <path
       style="opacity:1;fill:#ffccaa;fill-opacity:1;stroke:#1a1a1a;stroke-width:0.302001;stroke-dasharray:none;stroke-opacity:1"
       d="m 120.86367,103.87619 c 1.1895,-0.15669 2.25433,0.23634 3.32863,0.68868 1.40062,0.58973 0.79175,0.5739 1.37737,0.5739"
       id="path21262" />
    <path
       style="opacity:1;fill:#ffccaa;fill-opacity:1;stroke:#1a1a1a;stroke-width:0.302001;stroke-dasharray:none;stroke-opacity:1"
       d="m 122.12626,101.00668 c 0.84172,0 1.68344,0 2.52516,0"
       id="path21264" />
    <path
       style="opacity:1;fill:#ffccaa;fill-opacity:1;stroke:#1a1a1a;stroke-width:0.302001;stroke-dasharray:none;stroke-opacity:1"
       d="m 123.73318,99.858876 c -0.14518,0.206004 0.0726,0.470904 0,0.688684 -0.071,0.21304 -0.24412,0.0291 -0.34434,0.22956 -0.18496,0.36992 -0.45915,0.76524 -0.68868,1.1478 -0.018,0.03 -0.43356,0.5739 -0.34434,0.5739 0.0383,0 -0.0956,-0.22956 0.11478,-0.22956"
       id="path21266" />
    <path
       style="opacity:1;fill:#ffccaa;fill-opacity:1;stroke:#1a1a1a;stroke-width:0.302001;stroke-dasharray:none;stroke-opacity:1"
       d="m 123.38884,105.71267 c 0,-0.30608 0,-0.61216 0,-0.91824 0,-0.86234 0.0952,-1.78282 0,-2.63995 -0.0548,-0.49357 -0.33782,-1.03954 -0.45912,-0.91824 -0.0383,0.0383 0.0765,0.0765 0.11478,0.11478"
       id="path21268" />
    <path
       style="opacity:1;fill:#ffccaa;fill-opacity:1;stroke:#1a1a1a;stroke-width:0.302001;stroke-dasharray:none;stroke-opacity:1"
       d="m 121.55235,102.84316 c 2.25735,0 4.5147,0 6.77204,0 0.42087,0 1.68345,0 1.26259,0"
       id="path21270" />
    <path
       style="opacity:1;fill:#ffccaa;fill-opacity:1;stroke:#1a1a1a;stroke-width:0.302001;stroke-dasharray:none;stroke-opacity:1"
       d="m 123.50362,103.53185 c 0,-1.33911 0,-2.67821 0,-4.017316"
       id="path21272" />
    <path
       style="opacity:1;fill:#ffccaa;fill-opacity:1;stroke:#1a1a1a;stroke-width:0.302001;stroke-dasharray:none;stroke-opacity:1"
       d="m 122.24104,99.284974 c 0.70571,-0.0593 1.18295,0.803466 1.83648,0.803466"
       id="path21274" />
    <path
       style="opacity:1;fill:#ffccaa;fill-opacity:1;stroke:#1a1a1a;stroke-width:0.302001;stroke-dasharray:none;stroke-opacity:1"
       d="m 124.1923,98.02239 c -0.1913,0 -0.3826,0 -0.5739,0"
       id="path21276" />
    <path
       style="opacity:1;fill:#ffccaa;fill-opacity:1;stroke:#1a1a1a;stroke-width:0.302001;stroke-dasharray:none;stroke-opacity:1"
       d="m 122.01148,97.678051 c 0.52274,-0.354513 0.82356,0.22956 1.26258,0.22956"
       id="path21278" />
    <path
       style="opacity:1;fill:#ffccaa;fill-opacity:1;stroke:#1a1a1a;stroke-width:0.302001;stroke-dasharray:none;stroke-opacity:1"
       d="m 123.84796,96.530246 c -0.28354,0.3395 -1.03302,0.980281 -1.03302,1.492144"
       id="path21280" />
    <path
       style="opacity:1;fill:#ffccaa;fill-opacity:1;stroke:#1a1a1a;stroke-width:0.302001;stroke-dasharray:none;stroke-opacity:1"
       d="m 121.66714,94.693763 c 1.12857,1.187643 3.32863,3.302854 3.32863,5.050332"
       id="path21282" />
    <path
       style="opacity:1;fill:#ffccaa;fill-opacity:1;stroke:#1a1a1a;stroke-width:0.302001;stroke-dasharray:none;stroke-opacity:1"
       d="m 122.12626,100.318 c -0.19965,-0.866934 0.22956,-1.68869 0.22956,-2.52517"
       id="path21284" />
  </g>
</svg>
